<?xml version="1.0" encoding="UTF-8"?>
<svg version="1.1" xmlns="http://www.w3.org/2000/svg" width="1024" height="1024">
<path d="M0 0 C1.41691525 -0.00346625 2.83382779 -0.00823724 4.25073481 -0.01418173 C8.10289025 -0.02658876 11.95481985 -0.02056894 15.8069756 -0.01122308 C19.97746689 -0.00439021 24.14792136 -0.01493466 28.31840515 -0.02316284 C36.47204216 -0.03645747 44.62559602 -0.03364156 52.7792362 -0.02492492 C59.40970054 -0.0181319 66.04014169 -0.01723863 72.67060852 -0.02049637 C73.61661845 -0.02095607 74.56262837 -0.02141577 75.53730527 -0.0218894 C77.45949456 -0.02284863 79.38168384 -0.02382128 81.30387312 -0.02480717 C99.30088831 -0.03334855 117.29785754 -0.02354661 135.29486519 -0.00740607 C150.71543931 0.00599597 166.13594566 0.00366752 181.55651855 -0.01016235 C199.49198378 -0.02624032 217.4274088 -0.0325247 235.36288023 -0.02332556 C237.2777427 -0.02236998 239.19260517 -0.02142687 241.10746765 -0.02049637 C242.04945768 -0.02003354 242.9914477 -0.01957072 243.96198288 -0.01909386 C250.57950826 -0.01651062 257.19700801 -0.02086058 263.81452942 -0.02793503 C271.88619939 -0.03637489 279.95778191 -0.03401783 288.02944195 -0.0180928 C292.14261377 -0.01024341 296.25564012 -0.00706113 300.36881065 -0.01704025 C304.14271497 -0.02605735 307.9163406 -0.02094052 311.69022006 -0.0051076 C313.68341074 -0.00023158 315.67662116 -0.00989311 317.66979074 -0.02027929 C334.98757349 0.09131554 349.74061067 4.20019646 362.38903809 16.38095093 C365.02675472 19.5532717 367.26209524 22.84931588 369.38903809 26.38095093 C369.78864746 27.02677124 370.18825684 27.67259155 370.59997559 28.33798218 C376.61559539 39.08016039 376.83036429 51.4194407 376.77722168 63.40487671 C376.78129709 64.96841293 376.78664436 66.53194626 376.79315186 68.09547424 C376.80670482 72.29939055 376.80158018 76.50308343 376.7920146 80.70700312 C376.78436863 85.11914791 376.79147597 89.53127479 376.7961731 93.94342041 C376.80161063 101.33864755 376.79448586 108.7337844 376.78015137 116.1289978 C376.76376819 124.67994682 376.76916229 133.23068186 376.78563058 141.78162587 C376.79923072 149.13815588 376.80117416 156.49462142 376.79331458 163.85115993 C376.78863769 168.23912819 376.78801485 172.62699564 376.79792404 177.01495743 C376.80657212 181.13061165 376.80061173 185.24598819 376.78324127 189.36161232 C376.77926742 190.87293727 376.78042579 192.38428552 376.78702927 193.89560127 C376.79519833 195.95452256 376.78498168 198.01254735 376.76998901 200.07141113 C376.76885794 201.22428179 376.76772686 202.37715244 376.76656151 203.56495857 C376.38903809 206.38095093 376.38903809 206.38095093 375.0331974 208.23623466 C373.38903809 209.38095093 373.38903809 209.38095093 370.70153809 210.00595093 C365.63822854 209.0506095 363.01130246 205.89383964 359.38903809 202.38095093 C353.96727458 197.31830261 348.76169254 192.65751382 342.29919434 188.96298218 C338.93828697 186.1794086 337.56670547 183.09325271 337.11522102 178.74198914 C337.00744847 175.38387058 336.99858812 172.03763897 337.0201416 168.67782593 C337.01436012 166.71502675 337.00857593 164.75222758 337.0026902 162.78942871 C336.9992134 160.68760889 337.00305031 158.58591377 337.00891304 156.48410034 C337.02052764 152.09643102 337.0083076 147.70902434 336.99229431 143.32138062 C336.95615589 132.42540045 336.94987015 121.52942701 336.95239258 110.63339233 C336.95410465 102.16010629 336.94696398 93.68703573 336.91241401 85.21380997 C336.89564185 80.85488824 336.897395 76.4964927 336.91323674 72.13757324 C336.92040504 68.78632452 336.90179269 65.43529917 336.8873291 62.08407593 C336.90194435 60.27912659 336.90194435 60.27912659 336.91685486 58.43771362 C336.86284722 52.17691635 336.80869937 48.02409514 332.38903809 43.38095093 C329.09258899 41.28408527 326.45609877 41.1297269 322.58808327 41.12647533 C321.39598137 41.12064314 320.20387948 41.11481095 318.97565329 41.10880202 C317.66458401 41.11258134 316.35351472 41.11636067 315.00271606 41.12025452 C313.59698101 41.11723474 312.19124759 41.11334613 310.7855171 41.10866195 C306.9181733 41.09835069 303.05092187 41.1005717 299.18357038 41.10484254 C295.01442424 41.10730412 290.84530066 41.09830266 286.67616272 41.09080505 C278.50647887 41.07803997 270.33682787 41.07626663 262.16713573 41.07860532 C255.5277854 41.08038669 248.88844505 41.07864271 242.24909592 41.07438087 C241.30497203 41.07378569 240.36084815 41.0731905 239.38811444 41.07257727 C237.47025797 41.07136555 235.55240149 41.07015141 233.63454501 41.0689349 C215.63878214 41.05805229 197.64303799 41.0602252 179.64727406 41.06631974 C163.17808199 41.07148899 146.70894907 41.06023452 130.2397687 41.04122152 C113.336882 41.02185715 96.4340233 41.01358469 79.53112543 41.01734477 C70.03838618 41.01925902 60.54569728 41.01674759 51.05296707 41.00263023 C42.97131622 40.99073327 34.88974669 40.98929254 26.80809475 41.0014204 C22.68382808 41.00732109 18.55971029 41.00837581 14.43545341 40.996418 C10.66034068 40.9855996 6.88550185 40.98861404 3.11040215 41.00267968 C1.09689924 41.00659764 -0.91661565 40.99574654 -2.93009031 40.98438281 C-4.1274077 40.99158935 -5.32472508 40.99879589 -6.55832481 41.00622082 C-7.58975526 41.0061658 -8.62118571 41.00611079 -9.68387163 41.0060541 C-14.41115666 41.61151686 -18.43973602 43.55636176 -21.42346191 47.31845093 C-24.81504623 52.06666897 -24.75691955 56.03385291 -24.74238968 61.74084949 C-24.74546863 62.86148599 -24.74546863 62.86148599 -24.74860978 64.00476161 C-24.75428938 66.52216767 -24.75282135 69.03951918 -24.75140381 71.55693054 C-24.75398689 73.37443152 -24.75699989 75.19193192 -24.76040721 77.00943154 C-24.76848707 82.01497674 -24.77026733 87.02050761 -24.77100468 92.02605855 C-24.7728535 97.42017781 -24.78039992 102.81428959 -24.78713989 108.20840454 C-24.80073029 120.00784714 -24.80674891 131.80728634 -24.81115055 143.60673547 C-24.81391153 150.97120947 -24.81814859 158.33568215 -24.82265472 165.70015526 C-24.83484783 186.08162637 -24.84514738 206.46309643 -24.84852982 226.84457111 C-24.84874938 228.14938626 -24.84896895 229.4542014 -24.84919517 230.7985564 C-24.84941345 232.10652785 -24.84963172 233.41449929 -24.84985662 234.76210624 C-24.85030008 237.41264236 -24.85074665 240.06317848 -24.85119629 242.7137146 C-24.85152843 244.685859 -24.85152843 244.685859 -24.85186729 246.69784471 C-24.85581673 268.00978455 -24.87327503 289.32168034 -24.89655581 310.63360832 C-24.92025308 332.50290011 -24.93273091 354.37217474 -24.93389773 376.24147958 C-24.93481536 388.52490517 -24.94058972 400.80828625 -24.95871735 413.0916996 C-24.97409634 423.54960678 -24.97925179 434.00745567 -24.97097924 444.465372 C-24.96706507 449.80288824 -24.96803978 455.14028704 -24.98203659 460.47778893 C-24.99472929 465.36256418 -24.99361884 470.24713318 -24.98144588 475.13190796 C-24.97948084 476.90040925 -24.98260434 478.66892493 -24.99129024 480.43740598 C-25.00234346 482.83969814 -24.99492245 485.24125733 -24.98289871 487.64352894 C-24.99049391 488.33151279 -24.9980891 489.01949665 -25.00591445 489.7283285 C-24.9521047 494.7020276 -23.85124804 498.02874635 -21.61096191 502.38095093 C-16.91957818 506.95204277 -13.24042392 507.50458799 -6.87526989 507.51237869 C-5.69771828 507.51621984 -4.52016667 507.52006098 -3.30693167 507.52401853 C-1.36469662 507.5227188 -1.36469662 507.5227188 0.61677551 507.52139282 C2.00529745 507.52397666 3.39381864 507.52698987 4.7823388 507.53039622 C8.60212122 507.53846717 12.42188484 507.54025585 16.24167478 507.54099369 C20.35970971 507.54284406 24.47773487 507.55039127 28.59576416 507.55712891 C37.60190708 507.570713 46.60804555 507.57673695 55.61419702 507.58113956 C61.23657021 507.58390162 66.85894168 507.58813889 72.48131371 507.59264374 C88.04517795 507.60483606 103.60904082 507.61513574 119.17290974 507.61851883 C120.6671851 507.61884818 120.6671851 507.61884818 122.19164784 507.61918418 C123.1902247 507.61940246 124.18880155 507.61962074 125.21763831 507.61984563 C127.24116155 507.6202891 129.26468478 507.62073566 131.28820801 507.6211853 C132.29194701 507.62140673 133.29568601 507.62162816 134.32984134 507.6218563 C150.5978926 507.62580522 166.86589908 507.64326228 183.13393304 507.66654482 C199.83228851 507.69025056 216.5306215 507.70272031 233.22899407 507.70388675 C242.60607509 507.7048039 251.98309777 507.71056637 261.36016273 507.72870636 C269.34406357 507.74409678 277.32788803 507.74923404 285.31180087 507.74096826 C289.38556447 507.73705811 293.45917421 507.73800908 297.53291893 507.7520256 C301.2630515 507.76474257 304.99291425 507.76358656 308.72304633 507.75143489 C310.70996749 507.74854594 312.69689322 507.76043031 314.68377763 507.77285695 C322.2819446 507.73061653 327.77609486 507.42342943 333.76403809 502.38095093 C336.66503679 498.81049098 336.51704692 495.61807282 336.52706909 491.18289185 C336.5352491 489.23558922 336.5352491 489.23558922 336.54359436 487.24894714 C336.54471415 485.80694585 336.54576467 484.3649445 336.54675293 482.92294312 C336.55142138 481.40678256 336.556565 479.8906234 336.56214905 478.37446594 C336.57343068 475.10709515 336.5818646 471.83973348 336.58826828 468.57234955 C336.5989489 463.40339258 336.61919446 458.23450104 336.64138794 453.06558228 C336.70330836 438.36621095 336.75730675 423.66684326 336.79040527 408.96737671 C336.80876162 400.85074366 336.83771082 392.73422003 336.87840998 384.61766744 C336.89946398 380.32332832 336.91493496 376.02912702 336.91721725 371.73473358 C336.91936774 367.69304706 336.93527779 363.6516474 336.96160698 359.61004829 C336.96878635 358.12944942 336.97090755 356.64881573 336.9675045 355.16820335 C336.93526111 338.46779808 336.93526111 338.46779808 342.98937988 332.19955444 C343.48387131 331.67954361 343.97836273 331.15953278 344.48783875 330.62376404 C345.2800457 329.82488014 345.2800457 329.82488014 346.08825684 329.00985718 C346.64213577 328.44266464 347.19601471 327.87547211 347.76667786 327.29109192 C348.93395201 326.10368581 350.10659558 324.92153638 351.28430176 323.74447632 C353.07570175 321.94429137 354.83264543 320.11450026 356.59020996 318.28134155 C357.7334242 317.12639537 358.87854511 315.97333273 360.02575684 314.82235718 C360.54377365 314.2755983 361.06179047 313.72883942 361.59550476 313.16551208 C364.49288219 310.33801505 366.67093489 309.01656639 370.66174316 308.85336304 C371.89175049 309.02746704 373.12175781 309.20157104 374.38903809 309.38095093 C376.79966566 312.9968923 376.67184419 315.61505033 376.6497345 319.79144287 C376.65356004 320.55254163 376.65738559 321.3136404 376.66132706 322.09780276 C376.67167165 324.65628505 376.66766204 327.21454352 376.66369629 329.77304077 C376.66804228 331.60458586 376.67322505 333.43612913 376.67918396 335.26766968 C376.6926057 340.25169742 376.6931485 345.23564946 376.69062066 350.21969175 C376.68955187 354.38403326 376.69443262 358.5483594 376.69922608 362.71269763 C376.71033487 372.54695126 376.71075271 382.38116671 376.70471191 392.21542358 C376.69868686 402.34168166 376.71094257 412.46780027 376.73228198 422.59403455 C376.74994319 431.29657066 376.75589174 439.99906258 376.75264424 448.70161593 C376.75083649 453.89488995 376.75341557 459.08806476 376.76735878 464.28132248 C376.78000401 469.17494105 376.77793009 474.06834428 376.76494789 478.96195984 C376.76259607 480.74966634 376.76526626 482.5373883 376.77357101 484.32507706 C376.85322208 502.81808934 374.18593264 519.23067403 360.86950684 533.12704468 C351.05038501 542.04930184 338.65609729 547.49664421 325.34123898 547.51237869 C324.11949567 547.51621984 322.89775236 547.52006098 321.63898653 547.52401853 C320.28637813 547.52323834 318.93376978 547.52235956 317.5811615 547.52139282 C316.1417176 547.52397734 314.70227442 547.52699074 313.26283222 547.53039622 C309.30674189 547.53845954 305.35066971 547.54025543 301.39457214 547.54099369 C297.12785536 547.54284544 292.86114798 547.55039347 288.59443665 547.55712891 C279.26364736 547.57070869 269.93286237 547.57673659 260.60206485 547.58113956 C254.77411289 547.58390297 248.94616259 547.58814054 243.11821175 547.59264374 C226.97785134 547.60483667 210.83749226 547.61513546 194.69712734 547.61851883 C193.66415775 547.6187384 192.63118817 547.61895796 191.56691647 547.61918418 C190.01377779 547.6195116 190.01377779 547.6195116 188.42926258 547.61984563 C186.33113762 547.62028909 184.23301266 547.62073566 182.1348877 547.6211853 C180.57377779 547.62151745 180.57377779 547.62151745 178.98113031 547.6218563 C162.12483398 547.62580265 145.26858092 547.64325159 128.41230129 547.66654482 C111.10029336 547.69027438 93.78830712 547.70272144 76.47628266 547.70388675 C66.75867962 547.70480268 57.04113294 547.71053434 47.32354546 547.72870636 C39.04703016 547.7441291 30.77058864 547.74921505 22.4940617 547.74096826 C18.27385442 547.73706925 14.05379561 547.73795454 9.83360672 547.7520256 C5.96385747 547.76480977 2.09436757 547.7635277 -1.77538156 547.75143489 C-3.16911317 547.74948566 -4.56286345 547.75252025 -5.9565689 547.76127926 C-22.58686947 547.85910806 -36.13294286 544.30930784 -48.35705566 532.69735718 C-58.34761148 522.42976688 -63.95477739 509.69507169 -63.86543751 495.29294968 C-63.86864399 494.51572731 -63.87185046 493.73850494 -63.87515411 492.93773037 C-63.88343402 490.34180315 -63.87753688 487.74610786 -63.87165833 485.150177 C-63.87467993 483.26678956 -63.87856946 481.38340335 -63.88325089 479.50001931 C-63.89353859 474.33072108 -63.89134708 469.16149215 -63.8870703 463.99218822 C-63.88460446 458.41467079 -63.89361553 452.83717011 -63.90110779 447.25965881 C-63.91386117 436.33458166 -63.91564764 425.40952907 -63.91330753 414.48444572 C-63.91152477 405.60363374 -63.91327311 396.72282922 -63.91753197 387.84201813 C-63.91812716 386.57822664 -63.91872235 385.31443514 -63.91933557 384.01234694 C-63.92054732 381.44495898 -63.92176145 378.87757103 -63.92297795 376.31018308 C-63.93076591 359.06993563 -63.93468381 341.82969177 -63.9306612 324.58944321 C-63.93050483 323.91540682 -63.93034845 323.24137043 -63.93018733 322.54690869 C-63.92938157 319.13074783 -63.9285358 315.71458697 -63.92767403 312.29842612 C-63.9274174 311.28076561 -63.9274174 311.28076561 -63.92715559 310.2425463 C-63.92680893 308.87057494 -63.9264604 307.49860359 -63.92611 306.12663223 C-63.92075407 284.78381717 -63.92868004 263.44104344 -63.94714355 242.09823608 C-63.96787163 218.10972193 -63.97855355 194.12123688 -63.97456807 170.1327107 C-63.97265561 157.43503441 -63.97514793 144.73739577 -63.98928261 132.03972626 C-64.00119512 121.22888661 -64.00260278 110.41810777 -63.99049244 99.60726729 C-63.98460263 94.09290994 -63.98350724 88.57866383 -63.99549484 83.06431389 C-64.00634963 78.01227936 -64.00325494 72.96044901 -63.98923316 67.90842405 C-63.98658512 66.08477409 -63.98895612 64.26110814 -63.99696902 62.43747386 C-64.06987011 44.6023678 -61.58607291 30.0087814 -48.86096191 16.63485718 C-48.11846191 15.89106812 -47.37596191 15.14727905 -46.61096191 14.38095093 C-45.74471191 13.49729858 -45.74471191 13.49729858 -44.86096191 12.59579468 C-32.91707697 1.36969128 -15.58951546 -0.08123522 0 0 Z " fill="#38B5FE" transform="translate(250.6109619140625,190.61904907226563)"/>
<path d="M0 0 C0.85980469 0.70769531 1.71960938 1.41539062 2.60546875 2.14453125 C23.98510914 20.540966 37.00591853 46.28414039 41 74 C43.16655106 111.93658326 34.9016385 142.68452626 9.28515625 171.56640625 C8.86105469 172.03949219 8.43695312 172.51257813 8 173 C9.35370028 176.84915788 11.10202486 179.62108722 13.625 182.8125 C26.03027713 199.60802947 35.73056646 223.84633451 33 245 C31.5267696 249.37614743 29.51110393 252.95763287 26 256 C22.34034943 257.21988352 18.97337374 257.14809836 15.1627655 257.14717102 C14.35589226 257.15084771 13.54901901 257.1545244 12.71769506 257.1583125 C10.00474279 257.16935569 7.29182881 257.17319424 4.57885742 257.17700195 C2.63743467 257.18326605 0.69601312 257.1899128 -1.2454071 257.19691467 C-6.52645146 257.21432756 -11.80748676 257.22487692 -17.08855271 257.2331202 C-20.38671606 257.23826905 -23.68487659 257.24434479 -26.98303795 257.25063133 C-37.29868076 257.269683 -47.6143164 257.283915 -57.92997342 257.2922433 C-69.84454395 257.30202094 -81.75892895 257.32835438 -93.67343408 257.36874419 C-102.87860932 257.39888071 -112.08373129 257.41370978 -121.28895491 257.41702431 C-126.78889453 257.41937732 -132.28863594 257.42837057 -137.78852272 257.45348549 C-142.9620281 257.4767285 -148.13520423 257.48101459 -153.30874825 257.47072411 C-155.20744673 257.47022774 -157.10616122 257.47657772 -159.00481033 257.49028015 C-161.59754115 257.50794475 -164.18908336 257.5009201 -166.78181458 257.48774719 C-167.90814111 257.50420106 -167.90814111 257.50420106 -169.05722171 257.52098733 C-174.16922624 257.4583051 -177.07049493 256.2326209 -181 253 C-184.09763941 248.41575564 -184.51120353 244.15217383 -184.4375 238.75 C-184.43065186 237.96931152 -184.42380371 237.18862305 -184.41674805 236.38427734 C-184.06813856 223.34079892 -180.74002745 210.69824308 -175 199 C-174.55914063 198.09121094 -174.11828125 197.18242187 -173.6640625 196.24609375 C-170.33939034 189.78961716 -166.30013276 184.25808532 -161.7578125 178.62890625 C-159.62944009 175.97288109 -159.62944009 175.97288109 -160 172 C-161.90306804 169.57545016 -161.90306804 169.57545016 -164.4375 167.125 C-187.47831596 142.93501616 -193.83035489 111.6916945 -193.13183594 79.31835938 C-191.99737609 50.76358474 -176.52922506 22.38568732 -156 3 C-112.88124964 -35.3767906 -44.39622097 -36.81481131 0 0 Z M-134 38 C-145.20099763 51.10688565 -152.91485097 67.63761549 -154 85 C-154.07927734 86.175625 -154.07927734 86.175625 -154.16015625 87.375 C-154.91829852 109.52593925 -146.11092685 129.3138044 -131.1875 145.3125 C-128.64278788 147.90954553 -126.65701292 148.77739921 -123 149 C-119.90833004 147.94853002 -119.90833004 147.94853002 -116.6875 146.3125 C-94.42107438 136.03499771 -67.39207698 134.79352078 -44 142 C-40.25331475 143.41653374 -36.60510602 145.0102442 -33.0222168 146.80102539 C-29.58432805 148.51927466 -29.58432805 148.51927466 -25.82421875 148.9296875 C-13.18805905 142.48984594 -5.46561295 125.56836513 -1.15234375 112.7421875 C5.04634714 92.61220148 2.26823184 72.40949386 -7.06933594 53.75830078 C-9.31820741 49.50951475 -11.9736056 45.72430506 -15 42 C-15.66644531 41.17113281 -16.33289063 40.34226562 -17.01953125 39.48828125 C-30.00429346 24.21071418 -48.8439605 13.70813894 -69 12 C-93.77579248 10.68248056 -117.17584044 19.56916763 -134 38 Z " fill="#38B5FE" transform="translate(827,290)"/>
<path d="M0 0 C4.24278973 3.35387662 7.99641085 7.25648403 11.75292969 11.13549805 C13.50825081 12.94601023 15.28683634 14.73092945 17.0703125 16.51367188 C18.2045565 17.66265112 19.33742003 18.81299513 20.46875 19.96484375 C20.99577515 20.49520737 21.52280029 21.02557098 22.0657959 21.57200623 C26.87078231 26.56540307 28.29293167 30.45979465 28.375 37.3125 C28.40335938 38.38113281 28.43171875 39.44976562 28.4609375 40.55078125 C27.33085002 49.00728332 22.15012235 54.42953741 16.27702332 60.23091125 C15.49450252 61.01967201 14.71198173 61.80843276 13.90574819 62.62109536 C11.29058122 65.25217135 8.66140455 67.86877171 6.03198242 70.4855957 C4.15031256 72.37268752 2.26943696 74.26054189 0.38948059 76.14933777 C-4.18259929 80.73917098 -8.76538698 85.31816504 -13.35215119 89.89331899 C-17.0802731 93.6123954 -20.80445789 97.33537219 -24.52588463 101.06114769 C-25.05619097 101.59206696 -25.5864973 102.12298623 -26.13287353 102.66999396 C-27.21026021 103.74865958 -28.28763792 104.82733414 -29.36500677 105.90601756 C-39.45914083 116.01154781 -49.56548142 126.10479883 -59.67606165 136.19387098 C-68.34707623 144.84701029 -77.00754266 153.51059054 -85.66040039 162.18188477 C-95.71573849 172.25863765 -105.77754482 182.32885868 -115.84973449 192.38876981 C-116.92405405 193.46181521 -117.99836528 194.53486895 -119.07266808 195.60793114 C-119.60121231 196.13585827 -120.12975655 196.6637854 -120.67431727 197.20771033 C-124.39475383 200.92469621 -128.11053485 204.64629718 -131.82453346 208.36971474 C-136.35129462 212.90770377 -140.88513285 217.43847721 -145.42814306 221.96020136 C-147.74492822 224.26648753 -150.05732125 226.57688779 -152.36331558 228.89397049 C-154.86510368 231.40667754 -157.37886892 233.9067568 -159.89607239 236.40400696 C-160.62001609 237.13687355 -161.3439598 237.86974014 -162.08984119 238.62481481 C-168.14501585 244.58714354 -173.18442839 247.42765403 -181.9375 247.4375 C-183.08089844 247.45683594 -184.22429687 247.47617187 -185.40234375 247.49609375 C-194.39136471 246.25656534 -199.8055348 240.76016717 -205.90698242 234.54711914 C-206.75843338 233.69625229 -207.60988434 232.84538544 -208.48713684 231.96873474 C-210.8041745 229.64939923 -213.11212848 227.32147243 -215.41625381 224.98932195 C-217.83832061 222.5420944 -220.27186977 220.10633751 -222.70417786 217.66929626 C-227.30656714 213.05450548 -231.89867659 208.42962605 -236.48711139 203.80096477 C-241.69390196 198.54951006 -246.9120037 193.30935773 -252.13112867 188.07016575 C-261.05697588 179.1096201 -269.97435134 170.14073341 -278.88217163 161.16226196 C-280.92084314 159.10757319 -282.96028295 157.05365075 -285 155 C-285.77860854 154.21442372 -285.77860854 154.21442372 -286.57294655 153.41297722 C-288.73359058 151.23956842 -290.89235659 149.19483376 -293.3125 147.3125 C-294.6428125 146.1678125 -294.6428125 146.1678125 -296 145 C-296 144.34 -296 143.68 -296 143 C-296.55558594 142.77699219 -297.11117188 142.55398438 -297.68359375 142.32421875 C-303.30084248 139.11300911 -309.23192225 132.27956039 -312.125 126.4375 C-313.98415505 119.13367657 -313.68861586 113.78688902 -310.26451111 107.10780334 C-308.19711764 103.66168188 -305.52407821 100.99170348 -302.66015625 98.19921875 C-302.05618515 97.59616409 -301.45221405 96.99310944 -300.8299408 96.3717804 C-299.56136673 95.10920645 -298.28797749 93.85145357 -297.01000977 92.59838867 C-295.06072199 90.68575542 -293.12805924 88.75745573 -291.19726562 86.82617188 C-289.95667052 85.59540457 -288.71516477 84.36555435 -287.47265625 83.13671875 C-286.61148949 82.27889046 -286.61148949 82.27889046 -285.73292542 81.4037323 C-280.53127494 76.32335428 -276.10063364 73.31543336 -268.75 72.75 C-259.31604425 73.37893038 -253.28461208 78.17670689 -247 85 C-247 85.66 -247 86.32 -247 87 C-246.34 87 -245.68 87 -245 87 C-242.375 89.375 -242.375 89.375 -240 92 C-240 92.66 -240 93.32 -240 94 C-239.45349792 94.221185 -238.90699585 94.44237 -238.34393311 94.67025757 C-235.26048778 96.41953449 -232.96483708 98.77261651 -230.49707031 101.27587891 C-229.96003983 101.81261734 -229.42300934 102.34935577 -228.8697052 102.90235901 C-227.10106141 104.67239283 -225.33960176 106.44939857 -223.578125 108.2265625 C-222.35116534 109.45725344 -221.12376251 110.6875027 -219.89593506 111.91732788 C-216.66932512 115.15156516 -213.44876709 118.39176408 -210.22943115 121.63323975 C-206.94174328 124.94140534 -203.64836932 128.24389946 -200.35546875 131.546875 C-193.89806702 138.02571079 -187.44704432 144.51085869 -181 151 C-176.82155537 149.36263568 -174.03572897 146.29950738 -170.94743347 143.16775513 C-170.34458898 142.56450279 -169.7417445 141.96125046 -169.12063199 141.33971775 C-167.09932486 139.31467655 -165.0852604 137.28258152 -163.07104492 135.25048828 C-161.62415491 133.79812347 -160.17680154 132.34622014 -158.72901917 130.89474487 C-155.61054436 127.76655265 -152.49515547 124.63533004 -149.38204002 121.50180435 C-144.45836265 116.54633625 -139.52655412 111.59901549 -134.59333801 106.65304565 C-122.33929725 94.36490329 -110.09453371 82.06752738 -97.85467529 69.76525879 C-88.3463686 60.20849382 -78.83489705 50.65493354 -69.31281549 41.11189067 C-64.40937706 36.19693239 -59.51296563 31.27511157 -54.62170637 26.34803414 C-51.5745619 23.28168026 -48.52116216 20.22161503 -45.46599388 17.1632576 C-44.05205858 15.74530747 -42.64070653 14.3247759 -41.23216629 12.90146637 C-39.30618291 10.95602234 -37.37108709 9.02010728 -35.43351746 7.08621216 C-34.88077548 6.52336742 -34.3280335 5.96052267 -33.75854176 5.38062203 C-23.90887207 -4.38046363 -12.34806107 -7.13610986 0 0 Z " fill="#FEFEFE" transform="translate(587,412)"/>
<path d="M0 0 C1.38438234 -0.00807831 1.38438234 -0.00807831 2.79673201 -0.01631981 C5.89054816 -0.03063196 8.98393842 -0.02348755 12.07777405 -0.01637268 C14.29535263 -0.02207453 16.51292827 -0.02903807 18.73049927 -0.03717041 C24.7552495 -0.05513718 30.77985437 -0.05392681 36.80462337 -0.04822803 C41.83213846 -0.04514131 46.85962542 -0.05122285 51.88713652 -0.05726677 C64.42454056 -0.07212577 76.96187429 -0.06848874 89.49927331 -0.05640347 C100.38459799 -0.04647106 111.2697527 -0.05941174 122.15505116 -0.08333766 C133.33559154 -0.10772713 144.51607029 -0.11693713 155.69664103 -0.11068493 C161.97229256 -0.10731065 168.24780365 -0.10976182 174.52343559 -0.12693596 C180.42419067 -0.14237892 186.32462067 -0.13847872 192.22536278 -0.11963081 C194.39173571 -0.11593765 196.55813258 -0.11907448 198.72448349 -0.1295166 C201.68055015 -0.14267806 204.63553299 -0.13122156 207.59155273 -0.11352539 C208.4500194 -0.1231304 209.30848607 -0.1327354 210.19296688 -0.14263147 C215.55048907 -0.07658499 218.60111747 0.83610394 222.85926819 4.38768005 C225.95320428 8.81101566 225.22753309 14.13578293 225.23426819 19.32518005 C225.25876038 20.31453552 225.28325256 21.30389099 225.30848694 22.32322693 C225.32574914 26.60137554 225.29241488 29.5672618 223.27333069 33.3915863 C217.45807134 38.19999654 211.97941325 38.82716318 204.71253967 38.76863098 C203.81311614 38.77331095 202.91369261 38.77799093 201.98701382 38.78281271 C198.98464483 38.79474237 195.98273401 38.78531333 192.98036194 38.77586365 C190.82322423 38.77993024 188.6660886 38.78527262 186.50895691 38.79179382 C180.65779634 38.80546268 174.80679458 38.80017046 168.95563126 38.79065657 C162.83032556 38.7830578 156.7050334 38.79010619 150.57972717 38.79481506 C140.29365092 38.80027197 130.00763931 38.79308266 119.72157288 38.77879333 C107.83192611 38.762467 95.94243367 38.76775554 84.05279064 38.78427255 C73.84199548 38.79788923 63.63124675 38.79980617 53.42044544 38.79195654 C47.32311282 38.78728105 41.22585273 38.78665185 35.12852478 38.79656601 C29.39603836 38.80523596 23.66375081 38.79921301 17.93128586 38.78188324 C15.82822373 38.77791859 13.72514484 38.77905206 11.62208939 38.78567123 C8.74983302 38.79387748 5.87821263 38.78357599 3.0059967 38.76863098 C2.17515281 38.77532315 1.34430891 38.78201531 0.48828793 38.78891027 C-5.88028372 38.72470284 -10.84763652 37.68077535 -15.51573181 33.01268005 C-19.40770742 26.72564254 -18.72070604 18.52458509 -18.14073181 11.38768005 C-16.98544315 7.23115237 -15.54053989 4.48081244 -12.12682247 1.81498623 C-8.01556151 -0.15013433 -4.50164957 -0.03143395 0 0 Z " fill="#38B5FE" transform="translate(289.14073181152344,299.61231994628906)"/>
<path d="M0 0 C0.98473106 -0.00657338 0.98473106 -0.00657338 1.98935568 -0.01327956 C4.19331564 -0.02665447 6.39723563 -0.03284339 8.60122681 -0.03897095 C10.17974528 -0.04687278 11.75826196 -0.05514178 13.33677673 -0.06375122 C18.52337929 -0.0899561 23.70998988 -0.10527465 28.89663696 -0.11953735 C30.68173859 -0.12489716 32.46684016 -0.13027467 34.25194168 -0.13566971 C41.67575824 -0.15729379 49.09957263 -0.17603179 56.5234127 -0.1872921 C67.16639984 -0.20354125 77.8090225 -0.23674767 88.45187223 -0.29369295 C95.93390232 -0.33236354 103.41583479 -0.3519212 110.89796221 -0.35721266 C115.36787425 -0.36086933 119.8373974 -0.37292417 124.30720139 -0.4053154 C128.51145082 -0.43534655 132.71507504 -0.44172587 136.9194088 -0.42993164 C138.46216472 -0.42971051 140.00494925 -0.43804873 141.54760551 -0.45558548 C143.65496884 -0.47823757 145.76005709 -0.47000475 147.86743164 -0.45410156 C149.04619558 -0.45741171 150.22495953 -0.46072186 151.43944359 -0.46413231 C155.48757295 0.33742816 156.96640769 2.0238171 159.56069946 5.15390015 C161.54372737 9.11995596 160.87698023 14.04266258 160.93569946 18.40390015 C160.99177368 19.96044312 160.99177368 19.96044312 161.04898071 21.5484314 C161.14790508 30.15485123 161.14790508 30.15485123 158.22476196 33.82577515 C154.24238192 37.30597824 151.35512993 37.28116619 146.23529053 37.29434204 C145.26893545 37.29879872 145.26893545 37.29879872 144.28305805 37.30334544 C142.12054651 37.31202919 139.95809035 37.3135404 137.79556274 37.31503296 C136.24660117 37.31966132 134.69764074 37.32468601 133.14868164 37.33007812 C128.93791449 37.3432014 124.72716329 37.34964681 120.51637888 37.35408878 C117.88625149 37.35701931 115.25612846 37.36112405 112.62600327 37.36559296 C104.39858397 37.379267 96.17117465 37.38893441 87.94374478 37.39279485 C78.44311707 37.3972771 68.94263313 37.41483309 59.44204915 37.44379544 C52.10014237 37.46540112 44.75827608 37.47549851 37.41633785 37.47683597 C33.03037229 37.47788469 28.64454189 37.48380693 24.25860977 37.50165558 C20.13326314 37.5181173 16.00815354 37.52030109 11.8827858 37.51151657 C10.36907314 37.5107452 8.85534783 37.51510206 7.34166718 37.52497482 C5.27418709 37.53766843 3.20754988 37.53183257 1.14007568 37.52139282 C-0.59488568 37.52359266 -0.59488568 37.52359266 -2.36489677 37.52583694 C-6.72511297 36.99834447 -9.3667019 35.41803426 -12.18930054 32.09140015 C-15.48460514 24.34743434 -15.19231205 14.26025034 -13.43930054 6.15390015 C-9.64262794 0.39919513 -6.63148617 0.03136869 0 0 Z " fill="#38B5FE" transform="translate(285.4393005371094,375.8460998535156)"/>
<path d="M0 0 C9.57751889 7.53915481 15.54021852 17.3713508 17.71484375 29.33984375 C19.30511443 42.9375515 16.3469865 54.84594158 8.3671875 65.9765625 C1.66517823 74.08952109 -7.34060454 79.78186435 -17.8125 81.4375 C-32.68096959 82.69684101 -44.91164338 80.43660792 -56.78515625 70.84375 C-65.67517611 62.5594238 -70.17063061 52.13839614 -71.05859375 40.1015625 C-71.34733111 25.52881818 -67.39733826 14.37093714 -57.26171875 3.69921875 C-41.60480489 -10.7590797 -17.53637188 -11.74719822 0 0 Z " fill="#38B5FE" transform="translate(777.8125,334.5625)"/>
</svg>
